<?xml version="1.0" encoding="iso-8859-1"?>
<!-- Generator: Adobe Illustrator 16.0.0, SVG Export Plug-In . SVG Version: 6.00 Build 0)  -->
<!DOCTYPE svg PUBLIC "-//W3C//DTD SVG 1.1//EN" "http://www.w3.org/Graphics/SVG/1.1/DTD/svg11.dtd">
<svg version="1.1" id="Layer_1" xmlns="http://www.w3.org/2000/svg" xmlns:xlink="http://www.w3.org/1999/xlink" x="0px" y="0px"
	 width="50px" height="1000px" viewBox="0 0 50 1000" style="enable-background:new 0 0 50 1000;" xml:space="preserve">
<path style="fill:#DFFFF6;" d="M45,33c0,6.627-5.373,12-12,12H17c-6.627,0-12-5.373-12-12V17c0-6.627,5.373-12,12-12h16
	c6.627,0,12,5.373,12,12V33z"/>
<polygon style="fill:#73007F;" points="5.085,95 25.083,55 45.082,95 "/>
<polygon style="fill:#CAFF8A;" points="12.692,145 5.055,120.274 25.05,105 45.046,120.329 37.409,145 "/>
<polygon style="fill:#76008A;" points="15,195 5,174.5 15,155 34.999,155 45,174.5 34.999,195 "/>
<polygon style="fill:#FF6A9E;" points="45,585 24.5,595 5,585 5,565.001 24.5,555 45,565.001 "/>
<polygon style="fill:#FF5FA9;" points="16.099,245 5,230.081 8.961,212.725 25,205 41.039,212.724 45,230.081 33.9,245 "/>
<polygon style="fill:#FFD94A;" points="17.458,295 5,283.007 5,266.591 17.458,255 33.873,255 45,266.591 45,283.007 33.873,295 "/>
<polygon style="fill:#DE8E24;" points="18.054,345 7.412,336.062 5,322.378 11.946,310.345 25,305 38.055,310.344 45,322.375 
	42.588,336.063 31.946,345 "/>
<polygon style="fill:#39B54A;" points="18.82,395 8.819,386.798 5,375.075 8.819,363.293 18.82,355 31.18,355 41.181,363.309 
	45,375.086 41.181,386.788 31.18,395 "/>
<circle style="fill:#B3B3B3;" cx="25" cy="425" r="20"/>
<ellipse style="fill:#8CC63F;" cx="25" cy="475" rx="20" ry="15"/>
<ellipse style="fill:#B4D0FF;" cx="25" cy="525" rx="14" ry="20"/>
<rect x="10" y="605" style="fill:#8700E9;" width="30" height="40"/>
<rect x="5" y="661" style="fill:#FF154E;" width="40" height="30"/>
</svg>
